<?xml version="1.0" standalone="no"?>
<!DOCTYPE svg PUBLIC "-//W3C//DTD SVG 1.1//EN" "http://www.w3.org/Graphics/SVG/1.1/DTD/svg11.dtd" >
<svg xmlns="http://www.w3.org/2000/svg" xmlns:xlink="http://www.w3.org/1999/xlink" version="1.1">
<metadata>
Created by FontForge 20170731 at Sat Sep 11 04:42:05 1993
 By Aleksey,,,
This is a copyrighted typeface program. Duplication prohibited.
</metadata>
<defs>
<font id="FranklinGothicCond-Bold" horiz-adv-x="511" >
  <font-face 
    font-family="FranklinGothicCond"
    font-weight="700"
    font-stretch="normal"
    units-per-em="1000"
    panose-1="0 0 0 0 0 0 0 0 0 0"
    ascent="800"
    descent="-200"
    x-height="493"
    cap-height="667"
    bbox="-156 -250 946 898"
    underline-thickness="92"
    underline-position="-240"
    unicode-range="U+0020-F002"
  />
<missing-glyph horiz-adv-x="818" 
d="M51 0v818h716v-818h-716zM716 51v716h-614v-716h614z" />
    <glyph glyph-name=".notdef" horiz-adv-x="818" 
d="M51 0v818h716v-818h-716zM716 51v716h-614v-716h614z" />
    <glyph glyph-name=".null" horiz-adv-x="0" 
 />
    <glyph glyph-name="nonmarkingreturn" horiz-adv-x="187" 
 />
    <glyph glyph-name="space" unicode=" " horiz-adv-x="187" 
 />
    <glyph glyph-name="exclam" unicode="!" horiz-adv-x="341" 
d="M103 667h135l-34 -488h-67zM115 123h111v-123h-111v123z" />
    <glyph glyph-name="quotedbl" unicode="&#x22;" 
d="M128 667h103l-16 -274h-71zM281 667h103l-16 -274h-71z" />
    <glyph glyph-name="numbersign" unicode="#" 
d="M182 667h72l-32 -194h111l32 194h72l-33 -194h97l-11 -68h-97l-22 -129h97l-11 -68h-97l-35 -208h-72l35 208h-110l-35 -208h-72l35 208h-97l11 68h97l22 129h-97l11 68h97zM211 405l-22 -129h110l22 129h-110z" />
    <glyph glyph-name="dollar" unicode="$" 
d="M228 720h61v-66q69 -8 105.5 -38t57.5 -96l-79 -33q-17 45 -33.5 61.5t-54.5 27.5v-184q98 -26 139.5 -69.5t41.5 -119.5q0 -77 -46 -125t-131 -59v-85h-61v85q-79 11 -119 46.5t-64 114.5l88 30q12 -51 33 -74.5t64 -33.5v198q-160 51 -160 175q0 74 41 121t117 58v66z
M230 409v165q-66 -20 -66 -83q0 -58 66 -82zM285 284v-183q86 12 86 92q0 71 -86 91z" />
    <glyph glyph-name="percent" unicode="%" horiz-adv-x="681" 
d="M174 673q61 0 96 -46t35 -126q0 -81 -35 -127t-96 -46t-96 46t-35 127q0 80 35 126t96 46zM174 612q-27 0 -40 -27t-13 -84q0 -112 53 -112q28 0 40.5 26.5t12.5 85.5q0 58 -12.5 84.5t-40.5 26.5zM472 667h66l-326 -667h-66zM508 339q61 0 96 -46t35 -127
q0 -80 -35 -126t-96 -46t-96 46t-35 126q0 81 35 127t96 46zM508 278q-27 0 -40 -27t-13 -85q0 -111 53 -111q27 0 40 27t13 84q0 112 -53 112z" />
    <glyph glyph-name="ampersand" unicode="&#x26;" horiz-adv-x="630" 
d="M505 372l82 -18q-26 -133 -90 -227q21 -25 37 -35t35 -10l29 4v-86q-31 -9 -53 -9q-35 0 -58.5 13.5t-55.5 52.5q-44 -37 -83.5 -53t-87.5 -16q-89 0 -145 54t-56 142q0 130 146 198q-31 47 -45 84.5t-14 68.5q0 62 45 103t114 41q66 0 107 -40t41 -105q0 -102 -121 -173
l113 -164q39 63 60 175zM288 422q77 44 77 113q0 31 -16 50t-44 19q-26 0 -44 -19t-18 -48q0 -44 45 -115zM383 123l-135 196q-43 -27 -63 -58.5t-20 -71.5q0 -52 30 -85t79 -33q32 0 57.5 12t51.5 40z" />
    <glyph glyph-name="quotesingle" unicode="'" horiz-adv-x="341" 
d="M119 667h103l-16 -274h-71z" />
    <glyph glyph-name="parenleft" unicode="(" horiz-adv-x="324" 
d="M188 667h81q-114 -188 -114 -417q0 -230 114 -417h-81q-135 193 -135 417q0 223 135 417z" />
    <glyph glyph-name="parenright" unicode=")" horiz-adv-x="324" 
d="M136 -167h-81q114 189 114 417q0 112 -29 218t-85 199h81q135 -196 135 -417q0 -223 -135 -417z" />
    <glyph glyph-name="asterisk" unicode="*" 
d="M219 667h73l-11 -132l110 73l34 -67l-115 -52l115 -51l-34 -67l-110 73l11 -132h-73l11 132l-110 -73l-34 67l115 51l-115 52l34 67l110 -73z" />
    <glyph glyph-name="plus" unicode="+" 
d="M298 374h162v-81h-162v-164h-85v164h-162v81h162v164h85v-164z" />
    <glyph glyph-name="comma" unicode="," horiz-adv-x="239" 
d="M69 126h111v-120l-72 -147h-49l61 141h-51v126z" />
    <glyph glyph-name="hyphen" unicode="-" horiz-adv-x="290" 
d="M39 291h211v-82h-211v82z" />
    <glyph glyph-name="hyphen" unicode="&#xad;" horiz-adv-x="290" 
d="M39 291h211v-82h-211v82z" />
    <glyph glyph-name="period" unicode="." horiz-adv-x="239" 
d="M64 126h111v-126h-111v126z" />
    <glyph glyph-name="slash" unicode="/" horiz-adv-x="477" 
d="M353 667h76l-368 -834h-76z" />
    <glyph glyph-name="zero" unicode="0" 
d="M255 679q218 0 218 -346q0 -345 -218 -345q-217 0 -217 345q0 346 217 346zM255 597q-54 0 -78.5 -63t-24.5 -201q0 -140 24 -201.5t79 -61.5t79.5 62.5t24.5 200.5q0 140 -24.5 202t-79.5 62z" />
    <glyph glyph-name="one" unicode="1" 
d="M258 674h81v-592h109v-82h-332v82h115v457q-25 -29 -51.5 -50.5t-66.5 -44.5v103q46 26 80 55.5t65 71.5z" />
    <glyph glyph-name="two" unicode="2" 
d="M132 453l-99 21q41 205 214 205q91 0 145.5 -53.5t54.5 -142.5q0 -67 -32 -125.5t-86.5 -110.5t-94.5 -85t-84 -65h302l-5 -97h-414v96q169 145 234.5 228t65.5 152q0 51 -25.5 81.5t-67.5 30.5q-91 0 -108 -135z" />
    <glyph glyph-name="three" unicode="3" 
d="M130 496l-92 21q45 162 206 162q92 0 143.5 -47.5t51.5 -132.5q0 -54 -24 -88.5t-81 -59.5q123 -33 123 -164q0 -89 -59 -144t-157 -55q-189 0 -221 178l95 23q24 -114 118 -114q51 0 79.5 31.5t28.5 87.5q0 111 -135 111h-42v82h42q66 0 94 23.5t28 79.5
q0 49 -24.5 76.5t-67.5 27.5q-78 0 -106 -98z" />
    <glyph glyph-name="four" unicode="4" 
d="M270 679h127v-436h83v-84h-83v-159h-108v159h-259v81zM295 240v341l-178 -341h178z" />
    <glyph glyph-name="five" unicode="5" 
d="M89 667h347l-10 -97h-254l-9 -185q27 34 55 48t68 14q85 0 134.5 -59.5t49.5 -162.5q0 -110 -58.5 -173.5t-161.5 -63.5q-84 0 -137.5 44t-70.5 128l98 24q14 -57 40 -81t72 -24q111 0 111 142q0 135 -107 135q-72 0 -104 -73l-84 18z" />
    <glyph glyph-name="six" unicode="6" 
d="M474 517l-92 -29q-26 105 -101 105q-63 0 -94.5 -62.5t-31.5 -199.5q26 54 58.5 76.5t84.5 22.5q80 0 131 -61t51 -156q0 -101 -56 -163t-149 -62q-107 0 -164 85t-57 247q0 167 60 263t166 96q152 0 194 -162zM276 344q-50 0 -79 -36t-29 -99q0 -61 29 -98t77 -37
q99 0 99 136q0 64 -25 99t-72 35z" />
    <glyph glyph-name="seven" unicode="7" 
d="M80 667h385v-78q-182 -246 -182 -589h-117q0 157 49 296t151 274h-295z" />
    <glyph glyph-name="eight" unicode="8" 
d="M354 360q124 -61 124 -177q0 -86 -61.5 -140.5t-161.5 -54.5q-105 0 -163 48t-58 134q0 59 28 97.5t96 71.5q-55 34 -78 71t-23 89q0 81 56.5 130.5t148.5 49.5q89 0 142 -46t53 -124q0 -50 -24 -84.5t-79 -64.5zM270 396q51 27 71 51t20 60q0 42 -27.5 68.5t-70.5 26.5
q-45 0 -72.5 -25.5t-27.5 -65.5q0 -46 29.5 -70.5t54.5 -35.5zM237 298q-56 -25 -80 -53t-24 -69q0 -49 33 -79t89 -30q52 0 84.5 27.5t32.5 71.5q0 52 -34 77.5t-67 40.5z" />
    <glyph glyph-name="nine" unicode="9" 
d="M43 134l95 28q13 -48 34.5 -68t59.5 -20q61 0 90 59t29 192q-26 -49 -57 -69t-79 -20q-79 0 -131 62t-52 157q0 101 57.5 162.5t150.5 61.5q216 0 216 -323q0 -180 -58 -274t-170 -94q-74 0 -116 33t-69 113zM241 593q-48 0 -75 -36t-27 -99q0 -61 27 -96t75 -35
q46 0 73.5 36.5t27.5 96.5q0 59 -28 96t-73 37z" />
    <glyph glyph-name="colon" unicode=":" horiz-adv-x="239" 
d="M64 126h111v-126h-111v126zM64 493h111v-126h-111v126z" />
    <glyph glyph-name="semicolon" unicode=";" horiz-adv-x="239" 
d="M69 126h111v-120l-72 -147h-49l61 141h-51v126zM69 493h111v-126h-111v126z" />
    <glyph glyph-name="less" unicode="&#x3c;" 
d="M472 589v-101l-325 -155l325 -154v-101l-433 212v87z" />
    <glyph glyph-name="equal" unicode="=" 
d="M460 362h-409v81h409v-81zM460 224h-409v81h409v-81z" />
    <glyph glyph-name="greater" unicode="&#x3e;" 
d="M39 78v101l325 155l-325 154v101l433 -213v-86z" />
    <glyph glyph-name="question" unicode="?" horiz-adv-x="494" 
d="M133 453l-95 19q18 207 202 207q89 0 140 -49t51 -135q0 -54 -22 -93.5t-71 -79t-60 -60t-11 -61.5l1 -23h-92v20q0 79 12 104.5t72 77t60 118.5q0 94 -86 94q-49 0 -75 -34t-26 -105zM167 120h109v-120h-109v120z" />
    <glyph glyph-name="at" unicode="@" horiz-adv-x="596" 
d="M388 507h59l-29 -206l-6 -67q0 -34 25 -34q36 0 60 50t24 127q0 117 -55.5 182.5t-153.5 65.5q-102 0 -167 -83t-65 -214q0 -130 67.5 -207.5t179.5 -77.5q49 0 89.5 12t88.5 40l23 -53q-105 -58 -204 -58q-143 0 -230 94t-87 249q0 159 86 258t224 99q124 0 198 -81
t74 -219q0 -108 -46 -178t-116 -70q-33 0 -48.5 12t-24.5 46q-31 -60 -84 -60t-82 43t-29 122q0 89 41 152t100 63q56 0 81 -61zM305 441q-29 0 -49 -40t-20 -102q0 -92 46 -92q31 0 50 41t19 107q0 86 -46 86z" />
    <glyph glyph-name="A" unicode="A" horiz-adv-x="494" 
d="M189 667h124l178 -667h-112l-42 167h-195l-41 -167h-105zM315 254l-75 305l-76 -305h151z" />
    <glyph glyph-name="B" unicode="B" horiz-adv-x="545" 
d="M64 667h202q59 0 88 -5t57.5 -22t46.5 -55.5t18 -87.5q0 -57 -23 -91t-76 -55q119 -37 119 -167q0 -104 -52 -137t-85 -40t-90 -7h-205v667zM172 390h70q65 0 93 22t28 75q0 50 -26.5 72.5t-83.5 22.5h-81v-192zM172 88h89q122 0 122 107q0 110 -131 110h-80v-217z" />
    <glyph glyph-name="C" unicode="C" horiz-adv-x="528" 
d="M399 224l102 -14q-32 -222 -215 -222q-118 0 -181 88.5t-63 256.5q0 166 63 256t181 90q185 0 216 -228l-103 -15q-11 85 -36.5 118.5t-78.5 33.5q-125 0 -125 -263q0 -246 129 -246q47 0 72.5 32.5t38.5 112.5z" />
    <glyph glyph-name="D" unicode="D" horiz-adv-x="562" 
d="M64 667h150q151 0 228.5 -82.5t77.5 -241.5q0 -109 -36.5 -189t-100 -117t-161.5 -37h-158v667zM174 579v-491h46q183 0 183 246q0 245 -183 245h-46z" />
    <glyph glyph-name="E" unicode="E" horiz-adv-x="460" 
d="M64 667h382v-88h-272v-192h213v-88h-213v-209h276v-90h-386v667z" />
    <glyph glyph-name="F" unicode="F" horiz-adv-x="426" 
d="M64 667h370v-88h-260v-200h208v-88h-208v-291h-110v667z" />
    <glyph glyph-name="G" unicode="G" horiz-adv-x="562" 
d="M291 342h222v-347h-58l-15 85q-29 -49 -66.5 -70.5t-93.5 -21.5q-111 0 -174.5 90.5t-63.5 248.5q0 170 65 261t188 91q92 0 143.5 -48t71.5 -155l-100 -25q-17 78 -42 107.5t-73 29.5q-136 0 -136 -254q0 -255 137 -255q114 0 114 174h-119v89z" />
    <glyph glyph-name="H" unicode="H" horiz-adv-x="545" 
d="M64 667h110v-277h197v277h110v-667h-110v297h-197v-297h-110v667z" />
    <glyph glyph-name="I" unicode="I" horiz-adv-x="239" 
d="M64 667h110v-667h-110v667z" />
    <glyph glyph-name="J" unicode="J" horiz-adv-x="307" 
d="M135 667h110v-415q0 -106 -10 -151t-47.5 -79t-114.5 -34q-30 0 -48 3q-24 6 -41 9v92q34 -10 65 -10q54 0 70 31.5t16 138.5v415z" />
    <glyph glyph-name="K" unicode="K" 
d="M64 667h110v-318l201 318h117l-172 -245l201 -422h-119l-149 330l-79 -111v-219h-110v667z" />
    <glyph glyph-name="L" unicode="L" horiz-adv-x="409" 
d="M64 667h110v-574h236v-93h-346v667z" />
    <glyph glyph-name="M" unicode="M" horiz-adv-x="715" 
d="M62 667h163l133 -481l137 481h157v-667h-104v569l-158 -569h-81l-155 570v-570h-92v667z" />
    <glyph glyph-name="N" unicode="N" horiz-adv-x="562" 
d="M60 667h130l219 -481v481h92v-667h-103l-246 534v-534h-92v667z" />
    <glyph glyph-name="O" unicode="O" horiz-adv-x="562" 
d="M282 679q117 0 178 -88t61 -258q0 -169 -61 -257t-178 -88t-178.5 88.5t-61.5 256.5q0 169 61.5 257.5t178.5 88.5zM282 588q-64 0 -94 -62t-30 -193q0 -130 30 -192t94 -62q123 0 123 254q0 131 -30 193t-93 62z" />
    <glyph glyph-name="P" unicode="P" horiz-adv-x="494" 
d="M64 667h165q69 0 106 -8t69 -32t51 -67t19 -96q0 -125 -58.5 -158t-91 -39t-93.5 -6h-57v-261h-110v667zM174 582v-233h55q71 0 100 26t29 91q0 69 -28 89.5t-43 23.5t-58 3h-55z" />
    <glyph glyph-name="Q" unicode="Q" horiz-adv-x="562" 
d="M485 -58v-84q-32 -11 -65 -11q-69 0 -103 34t-34 108q-241 0 -241 345q0 168 61.5 256.5t178.5 88.5t178 -88t61 -257q0 -197 -51 -251t-101 -78q0 -39 14 -55t51 -16q23 0 51 8zM282 588q-64 0 -94 -61.5t-30 -193.5q0 -130 30 -192t94 -62q123 0 123 254q0 131 -30 193
t-93 62z" />
    <glyph glyph-name="R" unicode="R" horiz-adv-x="528" 
d="M64 667h200q213 0 213 -191q0 -120 -102 -174l126 -302h-119l-104 279h-104v-279h-110v667zM174 582v-218h85q109 0 109 113q0 105 -109 105h-85z" />
    <glyph glyph-name="S" unicode="S" 
d="M460 518l-94 -33q-19 56 -45.5 79.5t-71.5 23.5q-40 0 -65.5 -23.5t-25.5 -59.5q0 -38 25 -59t91.5 -46.5t93.5 -39.5t52 -35.5t41 -57.5t16 -74q0 -93 -61 -149t-164 -56q-185 0 -229 186l98 28q27 -123 133 -123q50 0 80 26t30 70q0 38 -24 61.5t-91.5 49t-91 37
t-65.5 48t-42 120.5q0 82 57 135t146 53q83 0 132 -38t75 -123z" />
    <glyph glyph-name="T" unicode="T" horiz-adv-x="375" 
d="M-16 667h407v-94h-150v-573h-110v573h-147v94z" />
    <glyph glyph-name="U" unicode="U" horiz-adv-x="545" 
d="M59 667h108v-414q0 -61 4 -87.5t17.5 -46.5t36 -30t56.5 -10q70 0 88 41.5t18 134.5v412h99v-406q0 -94 -9 -136.5t-50.5 -89.5t-153.5 -47q-132 0 -165 52.5t-41 97t-8 115.5v414z" />
    <glyph glyph-name="V" unicode="V" horiz-adv-x="460" 
d="M-4 667h116l127 -532l126 532h98l-176 -668l-119 1z" />
    <glyph glyph-name="W" unicode="W" horiz-adv-x="699" 
d="M2 667h112l90 -499l105 499h95l104 -500l95 500h93l-141 -668h-99l-105 489l-104 -489h-101z" />
    <glyph glyph-name="X" unicode="X" horiz-adv-x="443" 
d="M7 667h123l96 -213l106 213h103l-154 -303l175 -364h-124l-113 255l-128 -255h-105l178 345z" />
    <glyph glyph-name="Y" unicode="Y" horiz-adv-x="409" 
d="M-32 667h120l122 -278l125 278h105l-185 -385v-282h-110v282z" />
    <glyph glyph-name="Z" unicode="Z" horiz-adv-x="426" 
d="M19 667h400v-77l-295 -497h303v-93h-426v85l293 492h-275v90z" />
    <glyph glyph-name="bracketleft" unicode="[" horiz-adv-x="324" 
d="M79 667h173v-56h-78v-722h78v-56h-173v834z" />
    <glyph glyph-name="backslash" unicode="\" horiz-adv-x="477" 
d="M124 667l368 -834h-76l-368 834h76z" />
    <glyph glyph-name="bracketright" unicode="]" horiz-adv-x="324" 
d="M245 -167h-174v56h79v722h-79v56h174v-834z" />
    <glyph glyph-name="asciicircum" unicode="^" horiz-adv-x="500" 
d="M122 350h-107l168 320h134l168 -320h-107l-128 239z" />
    <glyph glyph-name="underscore" unicode="_" horiz-adv-x="500" 
d="M0 -56h500v-92h-500v92z" />
    <glyph glyph-name="grave" unicode="`" horiz-adv-x="500" 
d="M325 590l-37 -38l-172 108l53 67z" />
    <glyph glyph-name="a" unicode="a" horiz-adv-x="460" 
d="M151 354l-98 12q12 67 60 103t126 36q47 0 83.5 -15t54.5 -39t23.5 -55.5t5.5 -91.5v-168q0 -71 1 -91t7 -45h-96q-4 20 -5 34t-1 48q-29 -53 -59.5 -73.5t-79.5 -20.5q-63 0 -100.5 38.5t-37.5 103.5q0 48 20 85.5t50.5 54.5t79 26t98.5 9l21 -1v20q0 57 -17 81.5
t-57 24.5q-64 0 -79 -76zM304 216v24l-30 2q-133 0 -133 -104q0 -75 66 -75q43 0 70 42t27 111z" />
    <glyph glyph-name="b" unicode="b" horiz-adv-x="477" 
d="M59 667h101v-230q25 35 51.5 50t63.5 15q78 0 122 -66.5t44 -185.5q0 -126 -47 -193t-135 -67q-47 0 -72.5 16t-47.5 61q-11 -27 -22 -67h-58v667zM160 301v-93q0 -141 87 -141q46 0 66 44t20 143q0 94 -19.5 133.5t-66.5 39.5q-39 0 -63 -34.5t-24 -91.5z" />
    <glyph glyph-name="c" unicode="c" horiz-adv-x="409" 
d="M402 327l-98 -10q-8 63 -23.5 85t-53.5 22q-44 0 -64 -44t-20 -144q0 -164 85 -164q36 0 53 23.5t23 83.5l98 -9q-14 -95 -55.5 -138.5t-120.5 -43.5q-190 0 -190 258q0 125 49 192t141 67q80 0 121 -41.5t55 -136.5z" />
    <glyph glyph-name="d" unicode="d" horiz-adv-x="477" 
d="M316 667h101v-667h-93v75q-23 -46 -50.5 -65t-72.5 -19q-80 0 -123.5 66.5t-43.5 187.5q0 117 45 187t122 70q43 0 69 -15t46 -51v231zM316 206v84q0 41 -5 61t-26 48t-58 28q-85 0 -85 -173q0 -97 20 -141.5t65 -44.5q89 0 89 138z" />
    <glyph glyph-name="e" unicode="e" horiz-adv-x="443" 
d="M419 231h-279q0 -87 22 -126.5t71 -39.5q37 0 57.5 20.5t31.5 70.5l93 -12q-38 -156 -180 -156q-96 0 -147.5 64.5t-51.5 186.5q0 123 52.5 194.5t142.5 71.5q107 0 140 -63t40.5 -101.5t7.5 -109.5zM142 300h173q0 130 -87 130q-39 0 -62.5 -33.5t-23.5 -96.5z" />
    <glyph glyph-name="f" unicode="f" horiz-adv-x="256" 
d="M174 493h89v-82h-89v-411h-99v411h-65v82h65q0 65 6 93.5t32 64t106 35.5q18 0 29.5 -1t29.5 -5v-81q-20 4 -37 4q-39 0 -53 -17t-14 -67v-26z" />
    <glyph glyph-name="g" unicode="g" horiz-adv-x="443" 
d="M443 572v-75l-23 2q-44 0 -54 -53q38 -47 38 -106q0 -70 -47.5 -114.5t-121.5 -44.5q-29 0 -65 9q-21 -9 -29 -18t-8 -26q0 -26 24 -32.5t37 -8.5t63 -2q65 0 92.5 -6.5t63.5 -30.5t36 -93q0 -155 -224 -155q-198 0 -198 124q0 37 16 59t56 36q-54 32 -54 81q0 33 17 56
t56 43q-34 24 -49 53.5t-15 72.5q0 72 48 117t125 45q46 0 93 -21q9 51 29 70.5t64 19.5zM232 438q-73 0 -73 -98q0 -45 18 -70t52 -25q70 0 70 97q0 46 -17.5 71t-49.5 25zM161 21q-42 -23 -42 -63q0 -69 118 -69q117 0 117 68q0 33 -23 46.5t-87 13.5z" />
    <glyph glyph-name="h" unicode="h" horiz-adv-x="460" 
d="M60 667h102v-239q38 77 115 77q84 0 102 -43t21 -70.5t3 -80.5v-311h-102v311q0 65 -12 88.5t-47 23.5q-41 0 -60.5 -34.5t-19.5 -106.5v-282h-102v667z" />
    <glyph glyph-name="i" unicode="i" horiz-adv-x="222" 
d="M59 493h102v-493h-102v493zM164 559h-107v108h107v-108z" />
    <glyph glyph-name="j" unicode="j" horiz-adv-x="222" 
d="M62 493h102v-475q0 -68 -4 -96t-26.5 -63.5t-96.5 -35.5q-23 0 -62 7v85q12 -3 19.5 -4t18.5 -1q37 0 42 20t6 33.5t1 55.5v474zM167 559h-107v108h107v-108z" />
    <glyph glyph-name="k" unicode="k" horiz-adv-x="426" 
d="M60 667h102v-394l159 220h101l-128 -170l142 -323h-110l-98 247l-66 -90v-157h-102v667z" />
    <glyph glyph-name="l" unicode="l" horiz-adv-x="222" 
d="M60 667h102v-667h-102v667z" />
    <glyph glyph-name="m" unicode="m" horiz-adv-x="699" 
d="M60 493h94v-75q22 48 49 67.5t71 19.5q50 0 76.5 -21.5t38.5 -70.5q38 92 125 92q82 0 101 -38.5t23 -71t4 -83.5v-312h-102v304q0 72 -12 95.5t-50 23.5q-75 0 -75 -134v-289h-102v301v24q0 36 -1 42.5t-9.5 31t-50.5 24.5q-43 0 -60.5 -30.5t-17.5 -105.5v-287h-102
v493z" />
    <glyph glyph-name="n" unicode="n" horiz-adv-x="460" 
d="M60 493h94v-76q20 47 48.5 67.5t75.5 20.5q84 0 101.5 -43t20.5 -68.5t3 -75.5v-318h-102v312q0 68 -11.5 89.5t-47.5 21.5q-43 0 -61.5 -34t-18.5 -113v-276h-102v493z" />
    <glyph glyph-name="o" unicode="o" horiz-adv-x="460" 
d="M231 505q95 0 144 -66t49 -192q0 -259 -193 -259q-195 0 -195 259q0 258 195 258zM230 428q-86 0 -86 -182q0 -181 86 -181t86 182q0 181 -86 181z" />
    <glyph glyph-name="p" unicode="p" horiz-adv-x="477" 
d="M59 493h94v-81q23 49 51 69.5t73 20.5q76 0 120 -67t44 -184q0 -121 -45 -190.5t-123 -69.5q-40 0 -63.5 12.5t-49.5 47.5v-218h-101v660zM160 288v-82q0 -47 4 -66t24.5 -45.5t56.5 -26.5q46 0 67 43.5t21 139.5q0 176 -85 176q-48 0 -65 -37.5t-20 -54.5t-3 -47z" />
    <glyph glyph-name="q" unicode="q" horiz-adv-x="477" 
d="M361 497h56q0 -13 -1 -49t-1 -66v-549h-102v230q-45 -72 -114 -72q-77 0 -121 66t-44 183q0 124 46 193t129 69q43 0 70 -18t51 -64q9 19 16.5 36.5t14.5 40.5zM313 226v64q0 62 -24 99.5t-64 37.5q-83 0 -83 -179q0 -180 84 -180q40 0 63.5 42.5t23.5 115.5z" />
    <glyph glyph-name="r" unicode="r" horiz-adv-x="273" 
d="M60 493h90v-110q41 121 122 121l19 -2v-106l-20 2q-109 0 -109 -147v-251h-102v493z" />
    <glyph glyph-name="s" unicode="s" horiz-adv-x="392" 
d="M357 378l-80 -22q-25 74 -82 74q-30 0 -47.5 -16.5t-17.5 -44.5q0 -31 17.5 -43t38 -19.5t73 -24.5t84.5 -49.5t32 -89.5q0 -69 -50 -112t-131 -43q-153 0 -178 143l86 17q18 -85 95 -85q36 0 57 18t21 48q0 27 -18.5 42.5t-85.5 37.5t-102.5 54t-35.5 92q0 64 47 107
t117 43q123 0 160 -127z" />
    <glyph glyph-name="t" unicode="t" horiz-adv-x="272" 
d="M78 622l92 9v-138h94v-82h-94v-218q0 -54 1 -67t10.5 -32.5t57.5 -19.5l41 3v-81q-15 -3 -34 -5.5t-41 -2.5q-91 0 -110 40t-22 65.5t-3 92.5v225h-64v82h67z" />
    <glyph glyph-name="u" unicode="u" horiz-adv-x="460" 
d="M57 493h102v-313q0 -68 11 -89t47 -21q48 0 61.5 35.5t16.5 63.5t3 87v237h102v-493h-94v74q-23 -47 -50.5 -66.5t-71.5 -19.5q-83 0 -101.5 41t-22 70t-3.5 79v315z" />
    <glyph glyph-name="v" unicode="v" horiz-adv-x="358" 
d="M-6 493h100l92 -354l91 354h88l-139 -493h-91z" />
    <glyph glyph-name="w" unicode="w" horiz-adv-x="562" 
d="M-1 493h100l73 -339l71 339h90l70 -341l78 341h82l-122 -493h-86l-75 342l-71 -342h-86z" />
    <glyph glyph-name="x" unicode="x" horiz-adv-x="358" 
d="M-1 493h113l71 -143l76 143h94l-124 -223l146 -270h-114l-89 174l-93 -174h-96l143 256z" />
    <glyph glyph-name="y" unicode="y" horiz-adv-x="358" 
d="M0 493h102l85 -338l89 338h92l-160 -524q-26 -87 -55.5 -116.5t-88.5 -29.5q-20 0 -52 7v81l36 -3q41 0 56.5 18.5t35.5 90.5z" />
    <glyph glyph-name="z" unicode="z" horiz-adv-x="341" 
d="M33 493h299v-62l-207 -354h209v-77h-319v77l200 339h-182v77z" />
    <glyph glyph-name="braceleft" unicode="{" horiz-adv-x="324" 
d="M190 511v-106q0 -88 -9.5 -111t-51.5 -38q41 -15 51 -39.5t10 -110.5v-117q0 -65 10 -81.5t50 -16.5v-58l-31 -1q-68 0 -95.5 35.5t-27.5 121.5v119q0 60 -2 75t-13.5 26.5t-37.5 11.5v70q33 0 41 14t10 31.5t2 66.5v108q0 87 27.5 122t95.5 35l31 -1v-58q-40 0 -50 -16
t-10 -82z" />
    <glyph glyph-name="bar" unicode="|" horiz-adv-x="500" 
d="M199 667h102v-834h-102v834z" />
    <glyph glyph-name="braceright" unicode="}" horiz-adv-x="324" 
d="M73 -167v58q40 0 50 16t10 82v117q0 88 9 111.5t52 38.5q-41 14 -51 38t-10 111v106q0 64 -10 81t-50 17v58l31 1q68 0 95.5 -35.5t27.5 -121.5v-108q0 -60 2 -74.5t13.5 -26t37.5 -11.5v-70q-33 0 -41 -14.5t-10 -31.5t-2 -67v-119q0 -87 -27.5 -122t-95.5 -35z" />
    <glyph glyph-name="asciitilde" unicode="~" horiz-adv-x="667" 
d="M148 571l-57 38q35 74 64.5 100.5t79.5 26.5q37 0 92.5 -23t74 -28.5t34.5 -5.5q26 0 42 12t38 47l59 -34q-33 -67 -67.5 -95t-85.5 -28q-19 0 -42.5 7.5t-37 12.5t-54 21t-60.5 16q-25 0 -42.5 -14.5t-37.5 -52.5z" />
    <glyph glyph-name="nonbreakingspace" unicode="&#xa0;" horiz-adv-x="500" 
 />
    <glyph glyph-name="exclamdown" unicode="&#xa1;" horiz-adv-x="341" 
d="M238 -174h-135l34 488h67zM226 370h-111v123h111v-123z" />
    <glyph glyph-name="cent" unicode="&#xa2;" 
d="M233 667h58v-91q61 -10 94.5 -49t44.5 -115l-85 -11q-5 43 -16.5 64t-39.5 36v-318q28 14 38.5 33t17.5 65l85 -11q-11 -78 -43 -116.5t-96 -49.5v-109h-58v109q-74 13 -114 72.5t-40 157.5q0 107 39 169t115 73v91zM236 185v312q-31 -16 -45 -52.5t-14 -101.5
q0 -124 59 -158z" />
    <glyph glyph-name="sterling" unicode="&#xa3;" 
d="M267 390h127v-79h-117q4 -29 4 -52q0 -60 -18.5 -98.5t-63.5 -73.5h75q78 0 111.5 17.5t58.5 71.5l79 -41q-32 -83 -79.5 -109t-169.5 -26h-254v88h34q126 0 126 137v11q0 27 -7 75h-97v79h84q-7 41 -9 61t-2 44q0 84 48 134t129 50q60 0 98 -25t62 -82l-78 -48
q-29 71 -81 71q-72 0 -72 -100q0 -29 3.5 -47t6.5 -45z" />
    <glyph glyph-name="currency" unicode="&#xa4;" 
d="M341 485l69 69l56 -57l-69 -69q24 -40 24 -85q0 -42 -24 -83l69 -70l-58 -57l-68 69q-41 -24 -85 -24q-24 0 -42.5 5t-42.5 19l-68 -69l-57 56l69 69q-24 41 -24 85q0 45 23 85l-69 69l58 58l69 -69q42 23 84 23q45 0 86 -24zM256 429q-36 0 -61 -25t-25 -60
q0 -36 25 -61t61 -25q35 0 60 25t25 61q0 35 -25 60t-60 25z" />
    <glyph glyph-name="yen" unicode="&#xa5;" 
d="M27 667h112l123 -299l127 299h95l-123 -266h111v-61h-139l-30 -69h169v-61h-169v-210h-99v210h-157v61h156l-30 69h-126v61h99z" />
    <glyph glyph-name="brokenbar" unicode="&#xa6;" horiz-adv-x="500" 
d="M199 667h102v-340h-102v340zM199 153h102v-320h-102v320z" />
    <glyph glyph-name="section" unicode="&#xa7;" 
d="M445 549l-84 -20q-14 42 -35.5 60t-58.5 18q-36 0 -56 -20t-20 -55q0 -37 18.5 -51t37 -23.5t78.5 -33.5t90 -57t30 -91q0 -42 -15 -70.5t-56 -64.5q41 -29 59 -60.5t18 -77.5q0 -79 -54 -127t-142 -48q-163 0 -197 151l90 16q12 -49 37.5 -69.5t73.5 -20.5q43 0 69 23
t26 62t-23.5 59.5t-106 52.5t-115.5 66t-33 91q0 45 18.5 77t61.5 63q-60 50 -60 125q0 69 47 112t123 43q73 0 116 -31t63 -99zM214 367q-27 -22 -38 -40t-11 -42q0 -39 25.5 -56.5t37 -23t69.5 -27.5l15 -6q46 35 46 81q0 25 -15 43t-49 35l-13 6z" />
    <glyph glyph-name="dieresis" unicode="&#xa8;" horiz-adv-x="500" 
d="M171 672q22 0 37 -15t15 -37t-15 -37t-37 -15t-37 15t-15 37t15 37t37 15zM326 672q22 0 37 -15t15 -37t-15 -37t-37 -15t-37 15t-15 37q0 21 15.5 36.5t36.5 15.5z" />
    <glyph glyph-name="copyright" unicode="&#xa9;" horiz-adv-x="781" 
d="M466 276l78 -10q-20 -140 -145 -140q-78 0 -120.5 52.5t-42.5 149.5q0 105 41 159t122 54q125 0 146 -143l-79 -11q-7 51 -22 70.5t-46 19.5q-74 0 -74 -149q0 -138 76 -138q28 0 43 19t23 67zM391 679q144 0 246 -101t102 -244q0 -146 -102 -246t-252 -100
q-141 0 -242 102t-101 244q0 143 102 244t247 101zM391 613q-115 0 -195.5 -81.5t-80.5 -197.5q0 -114 80 -197t191 -83q118 0 199 81t81 199q0 115 -81 197t-194 82z" />
    <glyph glyph-name="ordfeminine" unicode="&#xaa;" horiz-adv-x="330" 
d="M127 587l-73 8q20 84 116 84q62 0 86.5 -26.5t24.5 -91.5v-94q0 -39 1 -52t6 -30h-61q-2 10 -3.5 18.5t-1.5 26.5q-37 -52 -89 -52q-41 0 -65.5 23.5t-24.5 62.5q0 58 36.5 77t54.5 22.5t67 3.5h6v8q0 51 -39 51q-34 0 -41 -39zM207 512v7l-17 1q-70 0 -70 -52
q0 -36 33 -36q54 0 54 80zM38 333h254v-58h-254v58z" />
    <glyph glyph-name="guillemotleft" unicode="&#xab;" horiz-adv-x="392" 
d="M349 96h-58l-94 160l94 160h58l-53 -160zM195 100h-57l-94 157l94 156h57l-53 -156z" />
    <glyph glyph-name="logicalnot" unicode="&#xac;" horiz-adv-x="500" 
d="M364 0v172h-331v95h433v-267h-102z" />
    <glyph glyph-name="registered" unicode="&#xae;" horiz-adv-x="781" 
d="M256 533h135q143 0 143 -117q0 -72 -64 -104l82 -179h-91l-66 162h-55v-162h-84v400zM340 472v-116h47q64 0 64 60q0 56 -63 56h-48zM391 679q144 0 246 -101t102 -244q0 -146 -102 -246t-252 -100q-141 0 -242 102t-101 244q0 143 102 244t247 101zM391 613
q-115 0 -195.5 -81.5t-80.5 -197.5q0 -114 80 -197t191 -83q118 0 199 81t81 199q0 115 -81 197t-194 82z" />
    <glyph glyph-name="macron" unicode="&#xaf;" horiz-adv-x="500" 
d="M115 650h270v-64h-270v64z" />
    <glyph glyph-name="macron" unicode="&#x2c9;" horiz-adv-x="500" 
d="M115 650h270v-64h-270v64z" />
    <glyph glyph-name="degree" unicode="&#xb0;" 
d="M256 679q65 0 110.5 -45.5t45.5 -110.5t-45.5 -110.5t-110.5 -45.5t-110.5 45.5t-45.5 110.5t45.5 110.5t110.5 45.5zM256 613q-32 0 -55 -26t-23 -64q0 -37 23 -63.5t55 -26.5t55 26t23 64q0 37 -23 63.5t-55 26.5z" />
    <glyph glyph-name="plusminus" unicode="&#xb1;" 
d="M298 374h162v-81h-162v-159h-85v159h-162v81h162v164h85v-164zM460 5h-409v81h409v-81z" />
    <glyph glyph-name="twosuperior" unicode="&#xb2;" horiz-adv-x="341" 
d="M99 528l-77 15q25 131 142 131q59 0 96 -33t37 -87q0 -105 -176 -217h179l-4 -70h-273v65q109 88 148 133.5t39 84.5q0 27 -13.5 42.5t-36.5 15.5q-52 0 -61 -80z" />
    <glyph glyph-name="threesuperior" unicode="&#xb3;" horiz-adv-x="341" 
d="M98 552l-72 16q31 105 138 105q59 0 94 -29t35 -80q0 -30 -14 -50t-48 -36q74 -24 74 -97q0 -54 -39.5 -87.5t-103.5 -33.5q-124 0 -148 115l74 16q14 -67 69 -67q60 0 60 62q0 59 -77 59h-33v58h33q39 0 54 11.5t15 41.5q0 55 -51 55q-24 0 -37.5 -13t-22.5 -46z" />
    <glyph glyph-name="acute" unicode="&#xb4;" horiz-adv-x="500" 
d="M202 590l157 137l52 -67l-172 -108z" />
    <glyph glyph-name="mu" unicode="&#xb5;" horiz-adv-x="460" 
d="M298 493h102v-493h-94v74q-10 -46 -28 -66t-49 -20q-32 0 -49.5 19.5t-28.5 66.5v-241h-94v660h102v-237q0 -74 3 -103.5t16.5 -56t50.5 -26.5q44 0 54.5 33.5t12.5 63t2 89.5v237z" />
    <glyph glyph-name="paragraph" unicode="&#xb6;" horiz-adv-x="528" 
d="M451 667v-834h-67v767h-49v-767h-67v446h-37q-60 0 -93 9t-73 47t-40 139q0 58 21 103t51.5 62.5t58.5 22.5t78 5h217z" />
    <glyph glyph-name="periodcentered" unicode="&#xb7;" horiz-adv-x="239" 
d="M64 320h111v-126h-111v126z" />
    <glyph glyph-name="periodcentered" unicode="&#x2219;" horiz-adv-x="239" 
d="M64 320h111v-126h-111v126z" />
    <glyph glyph-name="cedilla" unicode="&#xb8;" horiz-adv-x="500" 
d="M235 0h47l-16 -47l14 1q39 0 62 -19t23 -52q0 -36 -28 -59t-72 -23t-96 31l14 35q15 -6 34 -12t40 -6q39 0 39 30q0 39 -59 39l-18 -1h-13z" />
    <glyph glyph-name="onesuperior" unicode="&#xb9;" horiz-adv-x="341" 
d="M169 671h61v-343h69v-61h-223v61h73v242q-21 -19 -36 -28.5t-39 -20.5v74q55 27 95 76z" />
    <glyph glyph-name="ordmasculine" unicode="&#xba;" horiz-adv-x="330" 
d="M166 679q60 0 91.5 -38.5t31.5 -112.5q0 -150 -123 -150q-125 0 -125 151q0 150 125 150zM165 623q-44 0 -44 -95q0 -94 44 -94t44 94q0 95 -44 95zM38 333h254v-58h-254v58z" />
    <glyph glyph-name="guillemotright" unicode="&#xbb;" horiz-adv-x="392" 
d="M44 416h57l94 -160l-94 -160h-57l53 160zM197 416h58l94 -160l-94 -160h-58l53 160z" />
    <glyph glyph-name="onequarter" unicode="&#xbc;" horiz-adv-x="767" 
d="M161 671h61v-343h69v-61h-223v61h73v242q-21 -19 -36 -28.5t-39 -20.5v74q55 27 95 76zM510 667h71l-325 -667h-71zM584 407h91v-253h52v-62h-52v-92h-82v92h-164v55zM598 149v185l-102 -185h102z" />
    <glyph glyph-name="onehalf" unicode="&#xbd;" horiz-adv-x="767" 
d="M150 671h61v-343h69v-61h-223v61h73v242q-21 -19 -36 -28.5t-39 -20.5v74q55 27 95 76zM498 667h71l-325 -667h-71zM507 261l-77 15q26 131 142 131q61 0 97 -33t36 -87q0 -104 -176 -217h179l-4 -70h-273v65q109 88 148 133.5t39 84.5q0 27 -13.5 42.5t-36.5 15.5
q-52 0 -61 -80z" />
    <glyph glyph-name="threequarters" unicode="&#xbe;" horiz-adv-x="767" 
d="M114 552l-72 16q31 105 138 105q59 0 94 -29t35 -80q0 -30 -14 -50t-48 -36q74 -24 74 -97q0 -54 -39.5 -87.5t-103.5 -33.5q-124 0 -148 115l74 16q14 -67 69 -67q60 0 60 62q0 59 -77 59h-33v58h33q39 0 54 11.5t15 41.5q0 55 -51 55q-24 0 -37.5 -13t-22.5 -46z
M530 667h71l-325 -667h-72zM590 407h91v-253h52v-62h-52v-92h-82v92h-164v55zM604 149v185l-102 -185h102z" />
    <glyph glyph-name="questiondown" unicode="&#xbf;" horiz-adv-x="494" 
d="M361 39l95 -18q0 -100 -54.5 -153.5t-147.5 -53.5q-89 0 -140 49t-51 135q0 54 22.5 93.5t71 79t59.5 60t11 61.5l-1 23h92v-20q0 -79 -12 -105t-72 -77t-60 -118q0 -45 22.5 -69.5t63.5 -24.5q49 0 75 34t26 104zM327 373h-109v120h109v-120z" />
    <glyph glyph-name="Agrave" unicode="&#xc0;" horiz-adv-x="494" 
d="M189 667h124l178 -667h-112l-42 167h-195l-41 -167h-105zM315 254l-75 305l-76 -305h151zM328 774l-27 -48l-200 62l35 81z" />
    <glyph glyph-name="Aacute" unicode="&#xc1;" horiz-adv-x="494" 
d="M189 667h124l178 -667h-112l-42 167h-195l-41 -167h-105zM315 254l-75 305l-76 -305h151zM166 774l192 95l35 -81l-200 -62z" />
    <glyph glyph-name="Acircumflex" unicode="&#xc2;" horiz-adv-x="494" 
d="M189 667h124l178 -667h-112l-42 167h-195l-41 -167h-105zM315 254l-75 305l-76 -305h151zM67 733l180 127l179 -127l-89 -7l-90 50l-91 -50z" />
    <glyph glyph-name="Atilde" unicode="&#xc3;" horiz-adv-x="494" 
d="M189 667h124l178 -667h-112l-42 167h-195l-41 -167h-105zM315 254l-75 305l-76 -305h151zM363 834l45 -29q-48 -74 -107 -74q-26 0 -66 18.5t-56 18.5q-17 0 -25.5 -7t-23.5 -27l-44 29q47 73 106 73q19 0 34 -5t33.5 -14t32 -13.5t23.5 -4.5q26 0 48 35z" />
    <glyph glyph-name="Adieresis" unicode="&#xc4;" horiz-adv-x="494" 
d="M189 667h124l178 -667h-112l-42 167h-195l-41 -167h-105zM315 254l-75 305l-76 -305h151zM166 840q22 0 37.5 -15.5t15.5 -37.5q0 -23 -15.5 -38.5t-37.5 -15.5q-23 0 -38.5 15.5t-15.5 38.5q0 22 15.5 37.5t38.5 15.5zM326 840q22 0 37.5 -15.5t15.5 -37.5
q0 -23 -15.5 -38.5t-37.5 -15.5q-23 0 -38.5 15.5t-15.5 38.5q0 22 15.5 37.5t38.5 15.5z" />
    <glyph glyph-name="Aring" unicode="&#xc5;" horiz-adv-x="494" 
d="M189 667h124l178 -667h-112l-42 167h-195l-41 -167h-105zM315 254l-75 305l-76 -305h151zM258 898q40 0 67.5 -27.5t27.5 -66.5q0 -40 -27.5 -67.5t-67.5 -27.5q-39 0 -66.5 27.5t-27.5 67.5q0 39 27.5 66.5t66.5 27.5zM258 848q-17 0 -30 -13t-13 -32q0 -18 12 -31
t31 -13q18 0 31 13t13 31q0 19 -13 32t-31 13z" />
    <glyph glyph-name="AE" unicode="&#xc6;" horiz-adv-x="698" 
d="M262 667h425v-88h-267v-192h210v-88h-210v-209h268v-90h-376v183h-173l-79 -183h-101zM313 268v328l-140 -328h140z" />
    <glyph glyph-name="Ccedilla" unicode="&#xc7;" horiz-adv-x="528" 
d="M502 451l-103 -14q-11 84 -36.5 117.5t-78.5 33.5q-125 0 -125 -263q0 -246 129 -246q47 0 72.5 32.5t38.5 112.5l102 -13q-28 -207 -194 -222l-13 -39h14q40 0 64 -20t24 -53q0 -37 -28.5 -60.5t-74.5 -23.5q-26 0 -47.5 7t-51.5 24l14 38q44 -18 76 -18q38 0 38 30
q0 22 -16 30t-62 8h-13l27 77q-106 11 -161 98.5t-55 245.5q0 166 63 256t181 90q185 0 216 -228z" />
    <glyph glyph-name="Egrave" unicode="&#xc8;" horiz-adv-x="460" 
d="M64 667h382v-88h-272v-192h213v-88h-213v-209h276v-90h-386v667zM330 774l-27 -48l-200 62l35 81z" />
    <glyph glyph-name="Eacute" unicode="&#xc9;" horiz-adv-x="460" 
d="M64 667h382v-88h-272v-192h213v-88h-213v-209h276v-90h-386v667zM184 774l192 95l35 -81l-200 -62z" />
    <glyph glyph-name="Ecircumflex" unicode="&#xca;" horiz-adv-x="460" 
d="M64 667h382v-88h-272v-192h213v-88h-213v-209h276v-90h-386v667zM73 733l180 127l179 -127l-89 -7l-90 50l-91 -50z" />
    <glyph glyph-name="Edieresis" unicode="&#xcb;" horiz-adv-x="460" 
d="M64 667h382v-88h-272v-192h213v-88h-213v-209h276v-90h-386v667zM172 840q22 0 37.5 -15.5t15.5 -37.5q0 -23 -15.5 -38.5t-37.5 -15.5q-23 0 -38.5 15.5t-15.5 38.5q0 22 15.5 37.5t38.5 15.5zM332 840q22 0 37.5 -15.5t15.5 -37.5q0 -23 -15.5 -38.5t-37.5 -15.5
q-23 0 -38.5 15.5t-15.5 38.5q0 22 15.5 37.5t38.5 15.5z" />
    <glyph glyph-name="Igrave" unicode="&#xcc;" horiz-adv-x="239" 
d="M64 667h110v-667h-110v667zM190 756l-33 -40l-179 92l46 70z" />
    <glyph glyph-name="Iacute" unicode="&#xcd;" horiz-adv-x="239" 
d="M64 667h110v-667h-110v667zM49 756l166 122l46 -70l-179 -92z" />
    <glyph glyph-name="Icircumflex" unicode="&#xce;" horiz-adv-x="239" 
d="M65 667h110v-667h-110v667zM-40 733l160 127l159 -127l-89 -7l-70 50l-71 -50z" />
    <glyph glyph-name="Idieresis" unicode="&#xcf;" horiz-adv-x="239" 
d="M64 667h110v-667h-110v667zM48 838q21 0 36 -15t15 -36t-15 -36t-36 -15t-36 15t-15 36t15 36t36 15zM188 838q21 0 36 -15t15 -36t-15 -36t-36 -15t-36 15t-15 36t15 36t36 15z" />
    <glyph glyph-name="Eth" unicode="&#xd0;" horiz-adv-x="562" 
d="M64 667h150q129 0 189.5 -47.5t88.5 -118t28 -157.5q0 -109 -36 -189.5t-100 -117.5t-162 -37h-158v306h-67v75h67v286zM174 579v-198h116v-75h-116v-218h46q183 0 183 246q0 245 -183 245h-46z" />
    <glyph glyph-name="Ntilde" unicode="&#xd1;" horiz-adv-x="562" 
d="M60 667h130l219 -481v481h92v-667h-103l-246 534v-534h-92v667zM407 834l45 -29q-48 -74 -107 -74q-26 0 -66 18.5t-56 18.5q-17 0 -25.5 -7t-23.5 -27l-44 29q47 73 106 73q19 0 34 -5t33.5 -14t32 -13.5t23.5 -4.5q26 0 48 35z" />
    <glyph glyph-name="Ograve" unicode="&#xd2;" horiz-adv-x="562" 
d="M282 679q117 0 178 -88t61 -258q0 -169 -61 -257t-178 -88t-178.5 88.5t-61.5 256.5q0 169 61.5 257.5t178.5 88.5zM282 588q-64 0 -94 -62t-30 -193q0 -130 30 -192t94 -62q123 0 123 254q0 131 -30 193t-93 62zM350 774l-27 -48l-200 62l35 81z" />
    <glyph glyph-name="Oacute" unicode="&#xd3;" horiz-adv-x="562" 
d="M282 679q117 0 178 -88t61 -258q0 -169 -61 -257t-178 -88t-178.5 88.5t-61.5 256.5q0 169 61.5 257.5t178.5 88.5zM282 588q-64 0 -94 -62t-30 -193q0 -130 30 -192t94 -62q123 0 123 254q0 131 -30 193t-93 62zM221 774l192 95l35 -81l-200 -62z" />
    <glyph glyph-name="Ocircumflex" unicode="&#xd4;" horiz-adv-x="562" 
d="M282 679q117 0 178 -88t61 -258q0 -169 -61 -257t-178 -88t-178.5 88.5t-61.5 256.5q0 169 61.5 257.5t178.5 88.5zM282 588q-64 0 -94 -62t-30 -193q0 -130 30 -192t94 -62q123 0 123 254q0 131 -30 193t-93 62zM102 733l180 127l179 -127l-89 -7l-90 50l-91 -50z" />
    <glyph glyph-name="Otilde" unicode="&#xd5;" horiz-adv-x="562" 
d="M282 679q117 0 178 -88t61 -258q0 -169 -61 -257t-178 -88t-178.5 88.5t-61.5 256.5q0 169 61.5 257.5t178.5 88.5zM282 588q-64 0 -94 -62t-30 -193q0 -130 30 -192t94 -62q123 0 123 254q0 131 -30 193t-93 62zM398 834l45 -29q-48 -74 -107 -74q-26 0 -66 18.5
t-56 18.5q-17 0 -25.5 -7t-23.5 -27l-44 29q47 73 106 73q19 0 34 -5t33.5 -14t32 -13.5t23.5 -4.5q26 0 48 35z" />
    <glyph glyph-name="Odieresis" unicode="&#xd6;" horiz-adv-x="562" 
d="M282 679q117 0 178 -88t61 -258q0 -169 -61 -257t-178 -88t-178.5 88.5t-61.5 256.5q0 169 61.5 257.5t178.5 88.5zM282 588q-64 0 -94 -62t-30 -193q0 -130 30 -192t94 -62q123 0 123 254q0 131 -30 193t-93 62zM201 840q22 0 37.5 -15.5t15.5 -37.5q0 -23 -15.5 -38.5
t-37.5 -15.5q-23 0 -38.5 15.5t-15.5 38.5q0 22 15.5 37.5t38.5 15.5zM361 840q22 0 37.5 -15.5t15.5 -37.5q0 -23 -15.5 -38.5t-37.5 -15.5q-23 0 -38.5 15.5t-15.5 38.5q0 22 15.5 37.5t38.5 15.5z" />
    <glyph glyph-name="multiply" unicode="&#xd7;" 
d="M256 394l122 121l60 -60l-122 -122l122 -121l-60 -60l-122 121l-122 -121l-60 60l122 121l-122 122l60 60z" />
    <glyph glyph-name="Oslash" unicode="&#xd8;" horiz-adv-x="562" 
d="M438 703h63l-51 -102q34 -47 51 -113t17 -155q0 -169 -60 -257t-176 -88q-65 0 -122 33l-32 -62h-63l51 102q-72 94 -72 272q0 167 61 256t177 89q70 0 125 -35zM171 157l190 409q-17 14 -35.5 20t-44.5 6q-67 0 -98.5 -63t-31.5 -196q0 -104 20 -176zM394 500l-189 -404
q32 -22 76 -22q67 0 98.5 63t31.5 196q0 56 -4 95t-13 72z" />
    <glyph glyph-name="Ugrave" unicode="&#xd9;" horiz-adv-x="545" 
d="M59 667h108v-414q0 -61 4 -87.5t17.5 -46.5t36 -30t56.5 -10q70 0 88 41.5t18 134.5v412h99v-406q0 -94 -9 -136.5t-50.5 -89.5t-153.5 -47q-132 0 -165 52.5t-41 97t-8 115.5v414zM341 774l-27 -48l-200 62l35 81z" />
    <glyph glyph-name="Uacute" unicode="&#xda;" horiz-adv-x="545" 
d="M59 667h108v-414q0 -61 4 -87.5t17.5 -46.5t36 -30t56.5 -10q70 0 88 41.5t18 134.5v412h99v-406q0 -94 -9 -136.5t-50.5 -89.5t-153.5 -47q-132 0 -165 52.5t-41 97t-8 115.5v414zM212 774l192 95l35 -81l-200 -62z" />
    <glyph glyph-name="Ucircumflex" unicode="&#xdb;" horiz-adv-x="545" 
d="M59 667h108v-414q0 -61 4 -87.5t17.5 -46.5t36 -30t56.5 -10q70 0 88 41.5t18 134.5v412h99v-406q0 -94 -9 -136.5t-50.5 -89.5t-153.5 -47q-132 0 -165 52.5t-41 97t-8 115.5v414zM93 733l180 127l179 -127l-89 -7l-90 50l-91 -50z" />
    <glyph glyph-name="Udieresis" unicode="&#xdc;" horiz-adv-x="545" 
d="M59 667h108v-414q0 -61 4 -87.5t17.5 -46.5t36 -30t56.5 -10q70 0 88 41.5t18 134.5v412h99v-406q0 -94 -9 -136.5t-50.5 -89.5t-153.5 -47q-132 0 -165 52.5t-41 97t-8 115.5v414zM195 840q22 0 37.5 -15.5t15.5 -37.5q0 -23 -15.5 -38.5t-37.5 -15.5q-23 0 -38.5 15.5
t-15.5 38.5q0 22 15.5 37.5t38.5 15.5zM355 840q22 0 37.5 -15.5t15.5 -37.5q0 -23 -15.5 -38.5t-37.5 -15.5q-23 0 -38.5 15.5t-15.5 38.5q0 22 15.5 37.5t38.5 15.5z" />
    <glyph glyph-name="Yacute" unicode="&#xdd;" horiz-adv-x="409" 
d="M-32 667h120l122 -278l125 278h105l-185 -385v-282h-110v282zM143 774l193 95l34 -81l-200 -62z" />
    <glyph glyph-name="Thorn" unicode="&#xde;" horiz-adv-x="494" 
d="M64 667h110v-104h55q69 0 106 -8t69 -32t51 -67t19 -96q0 -125 -57.5 -158t-91 -39t-94.5 -6h-57v-157h-110v667zM174 478v-233h55q71 0 100 26t29 91q0 69 -28 89.5t-43 23.5t-58 3h-55z" />
    <glyph glyph-name="germandbls" unicode="&#xdf;" 
d="M8 365v82h58v12q0 64 11 102.5t37 70t68 49.5t87 18q76 0 121.5 -39.5t45.5 -104.5q0 -112 -160 -150q7 -14 19 -22.5t72 -36t94 -69.5t34 -106q0 -83 -49 -133t-131 -50q-43 0 -97 18l25 74q42 -15 72 -15q39 0 61.5 24.5t22.5 65.5q0 38 -18.5 60.5t-76 54t-79 57.5
t-21.5 62q0 16 2 26t11 34q121 24 121 97q0 35 -21 57t-56 22q-54 0 -70.5 -34t-19.5 -58t-3 -84v-495h-102v411h-58z" />
    <glyph glyph-name="agrave" unicode="&#xe0;" horiz-adv-x="460" 
d="M151 354l-98 12q12 67 60 103t126 36q47 0 83.5 -15t54.5 -39t23.5 -55.5t5.5 -91.5v-168q0 -71 1 -91t7 -45h-96q-4 20 -5 34t-1 48q-29 -53 -59.5 -73.5t-79.5 -20.5q-63 0 -100.5 38.5t-37.5 103.5q0 48 20 85.5t50.5 54.5t79 26t98.5 9l21 -1v20q0 57 -17 81.5
t-57 24.5q-64 0 -79 -76zM304 216v24l-30 2q-133 0 -133 -104q0 -75 66 -75q43 0 70 42t27 111zM306 590l-37 -38l-172 108l53 67z" />
    <glyph glyph-name="aacute" unicode="&#xe1;" horiz-adv-x="460" 
d="M151 354l-98 12q12 67 60 103t126 36q47 0 83.5 -15t54.5 -39t23.5 -55.5t5.5 -91.5v-168q0 -71 1 -91t7 -45h-96q-4 20 -5 34t-1 48q-29 -53 -59.5 -73.5t-79.5 -20.5q-63 0 -100.5 38.5t-37.5 103.5q0 48 20 85.5t50.5 54.5t79 26t98.5 9l21 -1v20q0 57 -17 81.5
t-57 24.5q-64 0 -79 -76zM304 216v24l-30 2q-133 0 -133 -104q0 -75 66 -75q43 0 70 42t27 111zM183 590l157 137l52 -67l-172 -108z" />
    <glyph glyph-name="acircumflex" unicode="&#xe2;" horiz-adv-x="460" 
d="M151 354l-98 12q12 67 60 103t126 36q47 0 83.5 -15t54.5 -39t23.5 -55.5t5.5 -91.5v-168q0 -71 1 -91t7 -45h-96q-4 20 -5 34t-1 48q-29 -53 -59.5 -73.5t-79.5 -20.5q-63 0 -100.5 38.5t-37.5 103.5q0 48 20 85.5t50.5 54.5t79 26t98.5 9l21 -1v20q0 57 -17 81.5
t-57 24.5q-64 0 -79 -76zM304 216v24l-30 2q-133 0 -133 -104q0 -75 66 -75q43 0 70 42t27 111zM55 563l174 134l175 -134l-87 -7l-88 59l-87 -59z" />
    <glyph glyph-name="atilde" unicode="&#xe3;" horiz-adv-x="460" 
d="M151 354l-98 12q12 67 60 103t126 36q47 0 83.5 -15t54.5 -39t23.5 -55.5t5.5 -91.5v-168q0 -71 1 -91t7 -45h-96q-4 20 -5 34t-1 48q-29 -53 -59.5 -73.5t-79.5 -20.5q-63 0 -100.5 38.5t-37.5 103.5q0 48 20 85.5t50.5 54.5t79 26t98.5 9l21 -1v20q0 57 -17 81.5
t-57 24.5q-64 0 -79 -76zM304 216v24l-30 2q-133 0 -133 -104q0 -75 66 -75q43 0 70 42t27 111zM339 669l42 -28q-46 -75 -100 -75q-24 0 -61.5 21t-52.5 21q-13 0 -22.5 -7.5t-24.5 -28.5l-41 27q24 41 46.5 58t52.5 17q23 0 61 -21t56 -21q12 0 22 8.5t22 28.5z" />
    <glyph glyph-name="adieresis" unicode="&#xe4;" horiz-adv-x="460" 
d="M151 354l-98 12q12 67 60 103t126 36q47 0 83.5 -15t54.5 -39t23.5 -55.5t5.5 -91.5v-168q0 -71 1 -91t7 -45h-96q-4 20 -5 34t-1 48q-29 -53 -59.5 -73.5t-79.5 -20.5q-63 0 -100.5 38.5t-37.5 103.5q0 48 20 85.5t50.5 54.5t79 26t98.5 9l21 -1v20q0 57 -17 81.5
t-57 24.5q-64 0 -79 -76zM304 216v24l-30 2q-133 0 -133 -104q0 -75 66 -75q43 0 70 42t27 111zM152 672q22 0 37 -15t15 -37t-15 -37t-37 -15t-37 15t-15 37t15 37t37 15zM307 672q22 0 37 -15t15 -37t-15 -37t-37 -15t-37 15t-15 37q0 21 15.5 36.5t36.5 15.5z" />
    <glyph glyph-name="aring" unicode="&#xe5;" horiz-adv-x="460" 
d="M151 354l-98 12q12 67 60 103t126 36q47 0 83.5 -15t54.5 -39t23.5 -55.5t5.5 -91.5v-168q0 -71 1 -91t7 -45h-96q-4 20 -5 34t-1 48q-29 -53 -59.5 -73.5t-79.5 -20.5q-63 0 -100.5 38.5t-37.5 103.5q0 48 20 85.5t50.5 54.5t79 26t98.5 9l21 -1v20q0 57 -17 81.5
t-57 24.5q-64 0 -79 -76zM304 216v24l-30 2q-133 0 -133 -104q0 -75 66 -75q43 0 70 42t27 111zM243 728q38 0 65 -27t27 -65q0 -37 -27 -64t-65 -27q-39 0 -65.5 26.5t-26.5 64.5t27 65t65 27zM243 679q-18 0 -30 -12t-12 -31q0 -18 12 -30t30 -12t30 12t12 30t-12.5 30.5
t-29.5 12.5z" />
    <glyph glyph-name="ae" unicode="&#xe6;" horiz-adv-x="698" 
d="M674 231h-277q0 -166 94 -166q36 0 55.5 20.5t30.5 70.5l91 -13q-36 -155 -177 -155q-54 0 -88.5 21.5t-60.5 70.5q-31 -49 -69.5 -70.5t-93.5 -21.5q-66 0 -105 38t-39 104q0 56 27.5 97.5t66 54.5t78 18t92.5 5l1 21q0 56 -17 80t-58 24q-65 0 -80 -78l-93 12
q25 141 179 141q90 0 131 -61q52 58 133 58q41 0 78 -22t59.5 -58t32 -80t9.5 -111zM399 300h171q0 130 -82 130q-41 0 -65 -33.5t-24 -96.5zM299 240l-28 2q-132 0 -132 -106q0 -73 64 -73q45 0 71 40.5t26 110.5z" />
    <glyph glyph-name="ccedilla" unicode="&#xe7;" horiz-adv-x="409" 
d="M402 327l-98 -10q-8 63 -23.5 85t-53.5 22q-44 0 -64 -44t-20 -144q0 -164 85 -164q37 0 53.5 23.5t22.5 83.5l98 -9q-13 -91 -46.5 -130.5t-108.5 -50.5l-12 -35h14q39 0 62 -19t23 -52q0 -36 -28 -59t-72 -23q-45 0 -96 31l13 36q26 -12 41 -15.5t34 -3.5q39 0 39 30
q0 39 -59 39h-19l-12 -1l25 72q-164 20 -164 257q0 125 49 192t141 67q80 0 121 -41.5t55 -136.5z" />
    <glyph glyph-name="egrave" unicode="&#xe8;" horiz-adv-x="443" 
d="M419 231h-279q0 -87 22 -126.5t71 -39.5q37 0 57.5 20.5t31.5 70.5l93 -12q-38 -156 -180 -156q-96 0 -147.5 64.5t-51.5 186.5q0 123 52.5 194.5t142.5 71.5q107 0 140 -63t40.5 -101.5t7.5 -109.5zM142 300h173q0 130 -87 130q-39 0 -62.5 -33.5t-23.5 -96.5zM300 590
l-37 -38l-172 108l53 67z" />
    <glyph glyph-name="eacute" unicode="&#xe9;" horiz-adv-x="443" 
d="M419 231h-279q0 -87 22 -126.5t71 -39.5q37 0 57.5 20.5t31.5 70.5l93 -12q-38 -156 -180 -156q-96 0 -147.5 64.5t-51.5 186.5q0 123 52.5 194.5t142.5 71.5q107 0 140 -63t40.5 -101.5t7.5 -109.5zM142 300h173q0 130 -87 130q-39 0 -62.5 -33.5t-23.5 -96.5zM178 590
l157 137l52 -67l-172 -108z" />
    <glyph glyph-name="ecircumflex" unicode="&#xea;" horiz-adv-x="443" 
d="M419 231h-279q0 -87 22 -126.5t71 -39.5q37 0 57.5 20.5t31.5 70.5l93 -12q-38 -156 -180 -156q-96 0 -147.5 64.5t-51.5 186.5q0 123 52.5 194.5t142.5 71.5q107 0 140 -63t40.5 -101.5t7.5 -109.5zM142 300h173q0 130 -87 130q-39 0 -62.5 -33.5t-23.5 -96.5zM47 563
l174 134l175 -134l-87 -7l-88 59l-87 -59z" />
    <glyph glyph-name="edieresis" unicode="&#xeb;" horiz-adv-x="443" 
d="M419 231h-279q0 -87 22 -126.5t71 -39.5q37 0 57.5 20.5t31.5 70.5l93 -12q-38 -156 -180 -156q-96 0 -147.5 64.5t-51.5 186.5q0 123 52.5 194.5t142.5 71.5q107 0 140 -63t40.5 -101.5t7.5 -109.5zM142 300h173q0 130 -87 130q-39 0 -62.5 -33.5t-23.5 -96.5zM143 672
q22 0 37 -15t15 -37t-15 -37t-37 -15t-37 15t-15 37t15 37t37 15zM298 672q22 0 37 -15t15 -37t-15 -37t-37 -15t-37 15t-15 37q0 21 15.5 36.5t36.5 15.5z" />
    <glyph glyph-name="igrave" unicode="&#xec;" horiz-adv-x="222" 
d="M51 493h102v-493h-102v493zM170 590l-37 -38l-172 108l53 67z" />
    <glyph glyph-name="iacute" unicode="&#xed;" horiz-adv-x="222" 
d="M50 493h102v-493h-102v493zM47 590l157 137l52 -67l-172 -108z" />
    <glyph glyph-name="icircumflex" unicode="&#xee;" horiz-adv-x="222" 
d="M60 493h102v-493h-102v493zM-37 563l148 134l148 -134l-81 -7l-67 59l-68 -59z" />
    <glyph glyph-name="idieresis" unicode="&#xef;" horiz-adv-x="222" 
d="M60 493h102v-493h-102v493zM38 669q21 0 35.5 -14.5t14.5 -35.5t-14 -35t-36 -14q-21 0 -35 14t-14 35t14.5 35.5t34.5 14.5zM181 669q21 0 35 -14t14 -36q0 -21 -14 -35t-35 -14t-35.5 14.5t-14.5 34.5q0 21 14.5 35.5t35.5 14.5z" />
    <glyph glyph-name="eth" unicode="&#xf0;" horiz-adv-x="443" 
d="M263 660l64 38l27 -45l-63 -38q68 -116 96 -201t28 -174q0 -121 -50 -186.5t-143 -65.5q-195 0 -195 259q0 118 46 188t123 70q36 0 69 -25q-12 29 -21.5 49t-22.5 44l-67 -40l-27 45l68 41l-24 43l-7 12l65 39zM221 428q-86 0 -86 -182q0 -181 86 -181t86 182
q0 181 -86 181z" />
    <glyph glyph-name="ntilde" unicode="&#xf1;" horiz-adv-x="460" 
d="M50 493h94v-76q20 47 48.5 67.5t75.5 20.5q84 0 101.5 -43t20.5 -68.5t3 -75.5v-318h-102v312q0 68 -11.5 89.5t-47.5 21.5q-43 0 -61.5 -34t-18.5 -113v-276h-102v493zM329 669l42 -28q-46 -75 -100 -75q-24 0 -61.5 21t-52.5 21q-13 0 -22.5 -7.5t-24.5 -28.5l-41 27
q24 41 46.5 58t52.5 17q23 0 61 -21t56 -21q12 0 22 8.5t22 28.5z" />
    <glyph glyph-name="ograve" unicode="&#xf2;" horiz-adv-x="460" 
d="M231 505q95 0 144 -66t49 -192q0 -259 -193 -259q-195 0 -195 259q0 258 195 258zM230 428q-86 0 -86 -182q0 -181 86 -181t86 182q0 181 -86 181zM305 590l-37 -38l-172 108l53 67z" />
    <glyph glyph-name="oacute" unicode="&#xf3;" horiz-adv-x="460" 
d="M231 505q95 0 144 -66t49 -192q0 -259 -193 -259q-195 0 -195 259q0 258 195 258zM230 428q-86 0 -86 -182q0 -181 86 -181t86 182q0 181 -86 181zM182 590l157 137l52 -67l-172 -108z" />
    <glyph glyph-name="ocircumflex" unicode="&#xf4;" horiz-adv-x="460" 
d="M231 505q95 0 144 -66t49 -192q0 -259 -193 -259q-195 0 -195 259q0 258 195 258zM230 428q-86 0 -86 -182q0 -181 86 -181t86 182q0 181 -86 181zM56 563l174 134l175 -134l-87 -7l-88 59l-87 -59z" />
    <glyph glyph-name="otilde" unicode="&#xf5;" horiz-adv-x="460" 
d="M231 505q95 0 144 -66t49 -192q0 -259 -193 -259q-195 0 -195 259q0 258 195 258zM230 428q-86 0 -86 -182q0 -181 86 -181t86 182q0 181 -86 181zM339 669l42 -28q-46 -75 -100 -75q-24 0 -61.5 21t-52.5 21q-13 0 -22.5 -7.5t-24.5 -28.5l-41 27q24 41 46.5 58t52.5 17
q23 0 61 -21t56 -21q12 0 22 8.5t22 28.5z" />
    <glyph glyph-name="odieresis" unicode="&#xf6;" horiz-adv-x="460" 
d="M231 505q95 0 144 -66t49 -192q0 -259 -193 -259q-195 0 -195 259q0 258 195 258zM230 428q-86 0 -86 -182q0 -181 86 -181t86 182q0 181 -86 181zM151 672q22 0 37 -15t15 -37t-15 -37t-37 -15t-37 15t-15 37t15 37t37 15zM306 672q22 0 37 -15t15 -37t-15 -37t-37 -15
t-37 15t-15 37q0 21 15.5 36.5t36.5 15.5z" />
    <glyph glyph-name="divide" unicode="&#xf7;" 
d="M460 293h-409v81h409v-81zM305 424h-99v111h99v-111zM305 132h-99v111h99v-111z" />
    <glyph glyph-name="oslash" unicode="&#xf8;" horiz-adv-x="460" 
d="M353 537h59l-45 -89q57 -70 57 -202q0 -258 -193 -258q-45 0 -90 18l-29 -58h-59l45 90q-32 38 -47 87.5t-15 120.5q0 128 49.5 193.5t145.5 65.5q52 0 95 -22zM147 120l139 298q-22 14 -56 14q-51 0 -74.5 -45t-23.5 -141q0 -71 15 -126zM317 362l-136 -291q15 -6 26 -8
t23 -2q50 0 74 45t24 141q0 57 -11 115z" />
    <glyph glyph-name="ugrave" unicode="&#xf9;" horiz-adv-x="460" 
d="M57 493h102v-313q0 -68 11 -89t47 -21q48 0 61.5 35.5t16.5 63.5t3 87v237h102v-493h-94v74q-23 -47 -50.5 -66.5t-71.5 -19.5q-83 0 -101.5 41t-22 70t-3.5 79v315zM305 590l-37 -38l-172 108l53 67z" />
    <glyph glyph-name="uacute" unicode="&#xfa;" horiz-adv-x="460" 
d="M57 493h102v-313q0 -68 11 -89t47 -21q48 0 61.5 35.5t16.5 63.5t3 87v237h102v-493h-94v74q-23 -47 -50.5 -66.5t-71.5 -19.5q-83 0 -101.5 41t-22 70t-3.5 79v315zM182 590l157 137l52 -67l-172 -108z" />
    <glyph glyph-name="ucircumflex" unicode="&#xfb;" horiz-adv-x="460" 
d="M57 493h102v-313q0 -68 11 -89t47 -21q48 0 61.5 35.5t16.5 63.5t3 87v237h102v-493h-94v74q-23 -47 -50.5 -66.5t-71.5 -19.5q-83 0 -101.5 41t-22 70t-3.5 79v315zM56 563l174 134l175 -134l-87 -7l-88 59l-87 -59z" />
    <glyph glyph-name="udieresis" unicode="&#xfc;" horiz-adv-x="460" 
d="M57 493h102v-313q0 -68 11 -89t47 -21q48 0 61.5 35.5t16.5 63.5t3 87v237h102v-493h-94v74q-23 -47 -50.5 -66.5t-71.5 -19.5q-83 0 -101.5 41t-22 70t-3.5 79v315zM151 672q22 0 37 -15t15 -37t-15 -37t-37 -15t-37 15t-15 37t15 37t37 15zM306 672q22 0 37 -15t15 -37
t-15 -37t-37 -15t-37 15t-15 37q0 21 15.5 36.5t36.5 15.5z" />
    <glyph glyph-name="yacute" unicode="&#xfd;" horiz-adv-x="358" 
d="M0 493h102l85 -338l89 338h92l-160 -524q-26 -87 -55.5 -116.5t-88.5 -29.5q-20 0 -52 7v81l36 -3q41 0 56.5 18.5t35.5 90.5zM136 590l157 137l53 -67l-173 -108z" />
    <glyph glyph-name="thorn" unicode="&#xfe;" horiz-adv-x="477" 
d="M59 667h101v-250q23 47 49.5 66t67.5 19q76 0 120 -67t44 -184q0 -121 -45 -190.5t-123 -69.5q-41 0 -63.5 12.5t-48.5 48.5l-1 -219h-101v834zM160 288v-82q0 -47 4 -65.5t24.5 -45.5t56.5 -27q46 0 67 43.5t21 139.5q0 176 -82 176q-39 0 -65 -40t-26 -99z" />
    <glyph glyph-name="ydieresis" unicode="&#xff;" horiz-adv-x="358" 
d="M0 493h102l85 -338l89 338h92l-160 -524q-26 -87 -55.5 -116.5t-88.5 -29.5q-20 0 -52 7v81l36 -3q41 0 56.5 18.5t35.5 90.5zM100 672q22 0 37 -15t15 -37t-15 -37t-37 -15t-37 15t-15 37t15 37t37 15zM255 672q22 0 37 -15t15 -37t-15 -37t-37 -15t-37 15t-15 37
q0 21 15.5 36.5t36.5 15.5z" />
    <glyph glyph-name="dotlessi" unicode="&#x131;" horiz-adv-x="222" 
d="M60 493h102v-493h-102v493z" />
    <glyph glyph-name="Lslash" unicode="&#x141;" horiz-adv-x="409" 
d="M64 667h110v-264l111 111v-93l-111 -111v-217h236v-93h-346v231l-67 -67v92l67 67v344z" />
    <glyph glyph-name="lslash" unicode="&#x142;" horiz-adv-x="238" 
d="M76 667h102v-245l67 67v-82l-67 -66v-341h-102v274l-66 -66v81l66 66v312z" />
    <glyph glyph-name="OE" unicode="&#x152;" horiz-adv-x="801" 
d="M789 667v-88h-277v-192h218v-88h-218v-209h279v-90h-383v61q-26 -40 -56 -57t-74 -17q-110 0 -173 92t-63 253q0 164 63.5 255.5t176.5 91.5q78 0 130 -67v55h377zM406 169v339q-21 44 -47 62t-68 18q-69 0 -100.5 -64.5t-31.5 -204.5q0 -241 133 -241q81 0 114 91z" />
    <glyph glyph-name="oe" unicode="&#x153;" horiz-adv-x="715" 
d="M691 231h-277q0 -86 22 -126t71 -40q37 0 56.5 20t30.5 71l93 -12q-36 -156 -178 -156q-93 0 -147 73q-27 -39 -58.5 -56t-78.5 -17q-92 0 -140.5 66.5t-48.5 191.5q0 259 193 259q91 0 140 -74q56 74 136 74q51 0 90 -22t60 -63t28.5 -79.5t7.5 -109.5zM229 428
q-85 0 -85 -182q0 -94 20.5 -137.5t64.5 -43.5t64 43t20 139q0 94 -20 137.5t-64 43.5zM587 300v10q0 57 -22.5 88.5t-62.5 31.5q-39 0 -62.5 -33.5t-23.5 -96.5h171z" />
    <glyph glyph-name="Scaron" unicode="&#x160;" 
d="M460 518l-94 -33q-19 56 -45.5 79.5t-71.5 23.5q-40 0 -65.5 -23.5t-25.5 -59.5q0 -38 25 -59t91.5 -46.5t93.5 -39.5t52 -35.5t41 -57.5t16 -74q0 -93 -61 -149t-164 -56q-185 0 -229 186l98 28q27 -123 133 -123q50 0 80 26t30 70q0 38 -24 61.5t-91.5 49t-91 37
t-65.5 48t-42 120.5q0 82 57 135t146 53q83 0 132 -38t75 -123zM75 844l90 7l90 -50l90 50l89 -7l-179 -126z" />
    <glyph glyph-name="scaron" unicode="&#x161;" horiz-adv-x="392" 
d="M357 378l-80 -22q-25 74 -82 74q-30 0 -47.5 -16.5t-17.5 -44.5q0 -31 17.5 -43t38 -19.5t73 -24.5t84.5 -49.5t32 -89.5q0 -69 -50 -112t-131 -43q-153 0 -178 143l86 17q18 -85 95 -85q36 0 57 18t21 48q0 27 -18.5 42.5t-85.5 37.5t-102.5 54t-35.5 92q0 64 47 107
t117 43q123 0 160 -127zM21 682l87 6l87 -59l88 59l87 -6l-175 -135z" />
    <glyph glyph-name="Ydieresis" unicode="&#x178;" horiz-adv-x="409" 
d="M-32 667h120l122 -278l125 278h105l-185 -385v-282h-110v282zM123 840q22 0 37.5 -15.5t15.5 -37.5q0 -23 -15.5 -38.5t-37.5 -15.5q-23 0 -38.5 15.5t-15.5 38.5q0 22 15.5 37.5t38.5 15.5zM283 840q22 0 37.5 -15.5t15.5 -37.5q0 -23 -15.5 -38.5t-37.5 -15.5
q-23 0 -38.5 15.5t-15.5 38.5q0 22 15.5 37.5t38.5 15.5z" />
    <glyph glyph-name="Zcaron" unicode="&#x17d;" horiz-adv-x="426" 
d="M19 667h400v-77l-295 -497h303v-93h-426v85l293 492h-275v90zM34 844l90 7l90 -50l90 50l89 -7l-179 -126z" />
    <glyph glyph-name="zcaron" unicode="&#x17f;" horiz-adv-x="341" 
d="M33 493h299v-62l-207 -354h209v-77h-319v77l200 339h-182v77zM13 682l87 6l87 -59l88 59l87 -6l-175 -135z" />
    <glyph glyph-name="florin" unicode="&#x192;" 
d="M338 460h101l-13 -82h-101l-51 -317q-19 -117 -59 -163t-122 -46q-21 0 -52 4l14 85l30 -1q45 0 62.5 24t30.5 104l50 310h-79l12 82h79q15 77 27 112t44.5 71.5t110.5 36.5q25 0 56 -6l-12 -82q-15 4 -29 4q-47 0 -65.5 -25.5t-33.5 -110.5z" />
    <glyph glyph-name="hungarumlaut" unicode="&#x2ba;" horiz-adv-x="500" 
d="M272 713l54 -57l-135 -104l-31 33zM411 713l54 -57l-135 -104l-31 33z" />
    <glyph glyph-name="circumflex" unicode="&#x2c6;" horiz-adv-x="500" 
d="M76 563l174 134l175 -134l-87 -7l-88 59l-87 -59z" />
    <glyph glyph-name="caron" unicode="&#x2c7;" horiz-adv-x="500" 
d="M76 682l87 6l87 -59l88 59l87 -6l-175 -135z" />
    <glyph glyph-name="breve" unicode="&#x2d8;" horiz-adv-x="500" 
d="M100 675h69q17 -55 81 -55q63 0 81 55h68q-28 -119 -149 -119q-122 0 -150 119z" />
    <glyph glyph-name="dotaccent" unicode="&#x2d9;" horiz-adv-x="500" 
d="M250 678q24 0 41 -17t17 -42q0 -24 -17 -41t-41 -17q-25 0 -42 17t-17 41q0 25 17 42t42 17z" />
    <glyph glyph-name="ring" unicode="&#x2da;" horiz-adv-x="500" 
d="M262 728q38 0 65 -27t27 -65q0 -37 -27 -64t-65 -27q-39 0 -65.5 26.5t-26.5 64.5t27 65t65 27zM262 679q-18 0 -30 -12t-12 -31q0 -18 12 -30t30 -12t30 12t12 30t-12.5 30.5t-29.5 12.5z" />
    <glyph glyph-name="ogonek" unicode="&#x2db;" horiz-adv-x="500" 
d="M284 0h45q-23 -22 -33 -39.5t-10 -36.5q0 -48 62 -48l34 2l10 -38q-33 -11 -70 -11q-47 0 -76 23t-29 61q0 50 67 87z" />
    <glyph glyph-name="tilde" unicode="&#x2dc;" horiz-adv-x="500" 
d="M359 669l42 -28q-46 -75 -100 -75q-24 0 -61.5 21t-52.5 21q-13 0 -22.5 -7.5t-24.5 -28.5l-41 27q24 41 46.5 58t52.5 17q23 0 61 -21t56 -21q12 0 22 8.5t22 28.5z" />
    <glyph glyph-name="summation" unicode="&#x3a3;" horiz-adv-x="667" 
d="M609 750v-240h-91l-11 145h-369l251 -387l-251 -423h379l6 143h95v-238h-594v106l246 412l-246 377v105h585z" />
    <glyph glyph-name="Omega" unicode="&#x3a9;" horiz-adv-x="667" 
d="M29 0v91h158q-82 50 -120 115t-38 159q0 136 87.5 226.5t218.5 90.5q129 0 216.5 -90.5t87.5 -226.5q0 -93 -37 -158t-120 -116h157v-91h-265v81q83 46 122 112t39 160q0 101 -57.5 169.5t-142.5 68.5q-87 0 -144.5 -68.5t-57.5 -170.5q0 -182 162 -271v-81h-266z" />
    <glyph glyph-name="pi" unicode="&#x3c0;" horiz-adv-x="624" 
d="M109 0v389h-76v91h558v-91h-74v-389h-102v389h-204v-389h-102z" />
    <glyph glyph-name="endash" unicode="&#x2013;" horiz-adv-x="409" 
d="M32 290h345v-79h-345v79z" />
    <glyph glyph-name="emdash" unicode="&#x2014;" horiz-adv-x="630" 
d="M31 290h569v-79h-569v79z" />
    <glyph glyph-name="quoteleft" unicode="&#x2018;" horiz-adv-x="222" 
d="M159 432h-106v121l67 125h49l-57 -122h47v-124z" />
    <glyph glyph-name="quoteright" unicode="&#x2019;" horiz-adv-x="187" 
d="M36 667h106v-121l-67 -125h-49l57 122h-47v124z" />
    <glyph glyph-name="quotesinglbase" unicode="&#x201a;" horiz-adv-x="222" 
d="M63 124h106v-121l-67 -125h-49l57 122h-47v124z" />
    <glyph glyph-name="quotedblleft" unicode="&#x201c;" horiz-adv-x="375" 
d="M310 432h-106v121l67 125h49l-57 -122h47v-124zM160 432h-106v121l67 125h49l-57 -122h47v-124z" />
    <glyph glyph-name="quotedblright" unicode="&#x201d;" horiz-adv-x="375" 
d="M64 667h106v-121l-67 -125h-49l57 122h-47v124zM214 667h106v-121l-67 -125h-49l57 122h-47v124z" />
    <glyph glyph-name="quotedblbase" unicode="&#x201e;" horiz-adv-x="375" 
d="M64 124h106v-121l-67 -125h-49l57 122h-47v124zM214 124h106v-121l-67 -125h-49l57 122h-47v124z" />
    <glyph glyph-name="dagger" unicode="&#x2020;" 
d="M207 667h97v-188h147v-87h-147v-559h-97v559h-147v87h147v188z" />
    <glyph glyph-name="daggerdbl" unicode="&#x2021;" 
d="M207 667h97v-188h147v-87h-147v-284h147v-87h-147v-188h-97v188h-147v87h147v284h-147v87h147v188z" />
    <glyph glyph-name="bullet" unicode="&#x2022;" horiz-adv-x="667" 
d="M336 477q57 0 97 -40t40 -98q0 -57 -40 -98t-97 -41q-59 0 -99.5 40.5t-40.5 98.5q0 57 40.5 97.5t99.5 40.5z" />
    <glyph glyph-name="ellipsis" unicode="&#x2026;" horiz-adv-x="716" 
d="M64 126h111v-126h-111v126zM303 126h111v-126h-111v126zM542 126h111v-126h-111v126z" />
    <glyph glyph-name="perthousand" unicode="&#x2030;" horiz-adv-x="988" 
d="M174 673q61 0 96 -46t35 -126q0 -81 -35 -127t-96 -46t-96 46t-35 127q0 80 35 126t96 46zM174 612q-27 0 -40 -27t-13 -84q0 -112 53 -112q28 0 40.5 26.5t12.5 85.5q0 58 -12.5 84.5t-40.5 26.5zM472 667h66l-326 -667h-66zM508 339q61 0 96 -46t35 -127
q0 -80 -35 -126t-96 -46t-96 46t-35 126q0 81 35 127t96 46zM508 278q-27 0 -40 -27t-13 -85q0 -111 53 -111q27 0 40 27t13 84q0 112 -53 112zM815 339q61 0 96 -46t35 -127q0 -80 -35 -126t-96 -46t-96 46t-35 126q0 81 35 127t96 46zM815 278q-27 0 -40 -27t-13 -85
q0 -111 53 -111q27 0 40 27t13 84q0 112 -53 112z" />
    <glyph glyph-name="guilsinglleft" unicode="&#x2039;" horiz-adv-x="239" 
d="M195 96h-57l-94 160l94 160h57l-53 -160z" />
    <glyph glyph-name="guilsinglright" unicode="&#x203a;" horiz-adv-x="239" 
d="M44 416h57l94 -160l-94 -160h-57l53 160z" />
    <glyph glyph-name="trademark" unicode="&#x2122;" horiz-adv-x="715" 
d="M15 647h244v-59h-86v-321h-74v321h-84v59zM289 647h109l70 -273l74 273h106v-380h-69v319l-87 -319h-59l-82 320v-320h-62v380z" />
    <glyph glyph-name="partialdiff" unicode="&#x2202;" horiz-adv-x="500" 
d="M74 579l13 89q94 -12 153.5 -36t115 -74.5t88.5 -129t33 -167.5q0 -124 -61.5 -197.5t-165.5 -73.5q-94 0 -160 66t-66 162q0 90 60 153t147 63q43 0 73 -13.5t61 -46.5q-26 58 -50.5 88.5t-82 67.5t-158.5 49zM253 359q-54 0 -90 -42t-36 -104q0 -60 36 -103t87 -43
t87 43.5t36 106.5q0 60 -34 101t-86 41z" />
    <glyph glyph-name="Delta" unicode="&#x2206;" horiz-adv-x="667" 
d="M22 0l255 667h110l258 -667h-623zM167 95h330l-165 448z" />
    <glyph glyph-name="product" unicode="&#x220f;" horiz-adv-x="716" 
d="M38 750h640v-95h-82v-810h82v-95h-264v95h80v810h-273v-810h80v-95h-263v95h81v810h-81v95z" />
    <glyph glyph-name="minus" unicode="&#x2212;" 
d="M460 293h-409v81h409v-81z" />
    <glyph glyph-name="fraction" unicode="&#x2215;" horiz-adv-x="85" 
d="M169 667h71l-325 -667h-71z" />
    <glyph glyph-name="radical" unicode="&#x221a;" horiz-adv-x="667" 
d="M667 830v-95h-187l-190 -735h-132l-69 285h-89v95h172l28 -108q8 -30 21 -143h8l13 79q13 79 20.5 111.5t30.5 126.5l99 384h275z" />
    <glyph glyph-name="infinity" unicode="&#x221e;" horiz-adv-x="667" 
d="M335 274q-71 -92 -160 -92q-70 0 -114 44t-44 115q0 69 44 113t114 44q87 0 156 -90q67 90 161 90q69 0 113 -44t44 -114q0 -71 -44.5 -114.5t-115.5 -43.5q-88 0 -154 92zM383 340q25 -39 47.5 -55.5t48.5 -16.5q30 0 50 21t20 53q0 29 -20.5 49.5t-50.5 20.5
q-39 0 -72 -41l-17 -22zM282 340q-46 72 -95 72q-30 0 -50 -21t-20 -53q0 -28 21 -49t50 -21q39 0 72 41l17 22z" />
    <glyph glyph-name="integral" unicode="&#x222b;" horiz-adv-x="500" 
d="M71 -239l20 90q19 -6 28.5 -8t23.5 -2q54 0 54 53q2 12 2 74v545q0 67 2 96.5t10.5 61t45.5 55.5t92 24q18 0 35.5 -2t44.5 -8l-20 -91q-18 5 -29 7t-23 2q-54 0 -54 -53l-2 -64v-59v-494q0 -94 -5 -126t-33.5 -71.5t-115.5 -39.5q-42 0 -76 10z" />
    <glyph glyph-name="approxequal" unicode="&#x2248;" 
d="M71 343l-57 37q30 69 63 98t81 29q37 0 92.5 -23t74 -28.5t34.5 -5.5q26 0 42.5 12.5t37.5 46.5l59 -34q-33 -67 -67.5 -95t-85.5 -28q-19 0 -47 9t-49 17.5t-48.5 19.5t-49.5 11q-25 0 -42.5 -14.5t-37.5 -51.5zM71 157l-57 38q29 68 62.5 97.5t82.5 29.5q36 0 91.5 -23
t74 -28.5t34.5 -5.5q26 0 42.5 12.5t37.5 46.5l59 -34q-33 -67 -67.5 -95t-85.5 -28q-19 0 -47 9t-49 17.5t-49.5 19.5t-48.5 11q-25 0 -42.5 -14.5t-37.5 -52.5z" />
    <glyph glyph-name="notequal" unicode="&#x2260;" 
d="M351 443h109v-81h-147l-26 -57h173v-81h-211l-53 -114l-74 34l38 80h-109v81h147l26 57h-173v81h211l53 114l74 -34z" />
    <glyph glyph-name="lessequal" unicode="&#x2264;" 
d="M472 639v-97l-325 -147l325 -147v-96l-433 198v87zM472 123v-95h-433v95h433z" />
    <glyph glyph-name="greaterequal" unicode="&#x2265;" 
d="M39 152v96l325 147l-325 147v97l433 -202v-87zM39 28v95h433v-95h-433z" />
    <glyph glyph-name="lozenge" unicode="&#x25ca;" horiz-adv-x="667" 
d="M334 693l259 -359l-259 -360l-260 360zM334 604l-197 -270l197 -271l197 271z" />
    <glyph glyph-name="apple" unicode="&#xf000;" horiz-adv-x="667" 
d="M481 691v-10q0 -65 -45 -114t-104 -49q0 72 40 118t109 55zM624 457q-43 -33 -62 -65t-19 -74q0 -51 26 -90t74 -59q-80 -196 -172 -196q-16 0 -36 8.5t-35.5 15t-44.5 6.5q-30 0 -40.5 -3.5t-40.5 -15.5t-47 -12q-66 0 -130 111t-64 224q0 97 52 158t135 61
q34 0 72.5 -15t51.5 -15q18 0 49 12t49 16t41 4q89 0 141 -71z" />
    <glyph glyph-name="fi" unicode="&#xf001;" horiz-adv-x="477" 
d="M174 493h86v-82h-86v-411h-99v411h-65v82h65q0 64 5.5 92.5t32 64.5t107.5 36q21 0 46 -4v-81l-27 1q-38 0 -51.5 -17.5t-13.5 -65.5v-26zM315 493h102v-493h-102v493zM419 559h-106v108h106v-108z" />
    <glyph glyph-name="fl" unicode="&#xf002;" horiz-adv-x="477" 
d="M174 493h86v-82h-86v-411h-99v411h-65v82h65q0 64 5.5 92.5t32 64.5t107.5 36q21 0 46 -4v-81l-27 1q-38 0 -51.5 -17.5t-13.5 -65.5v-26zM315 667h102v-667h-102v667z" />
    </font>
</defs>
</svg>
